<?xml version="1.0" standalone="no"?>
<!DOCTYPE svg PUBLIC "-//W3C//DTD SVG 20010904//EN"
 "http://www.w3.org/TR/2001/REC-SVG-20010904/DTD/svg10.dtd">
<svg version="1.0" xmlns="http://www.w3.org/2000/svg"
 width="512.000000pt" height="512.000000pt" viewBox="0 0 512.000000 512.000000"
 preserveAspectRatio="xMidYMid meet">

<g transform="translate(0.000000,512.000000) scale(0.100000,-0.100000)"
fill="#000000" stroke="none">
<path d="M1035 4605 c-506 -377 -855 -928 -980 -1545 -69 -337 -65 -719 11
-1060 193 -867 840 -1583 1687 -1864 269 -90 511 -129 802 -129 268 0 472 28
717 99 534 155 1025 501 1350 952 l61 84 -34 34 -34 33 -76 -102 c-411 -550
-998 -894 -1679 -983 -177 -23 -536 -15 -705 15 -170 31 -330 75 -477 133
-861 337 -1465 1126 -1559 2036 -17 167 -7 505 20 657 114 642 452 1191 973
1578 l97 72 -31 33 c-18 17 -34 32 -37 32 -4 0 -51 -34 -106 -75z"/>
<path d="M1048 4349 c-32 -18 -22 -60 28 -117 46 -53 77 -65 102 -40 23 23 12
54 -39 111 -52 59 -62 64 -91 46z"/>
<path d="M1425 4229 c-631 -429 -967 -1174 -869 -1931 118 -918 856 -1642
1779 -1748 50 -5 152 -10 227 -10 445 0 862 141 1223 414 165 124 413 399 489
541 l19 36 -33 34 -33 34 -34 -56 c-90 -148 -273 -355 -423 -476 -583 -471
-1396 -561 -2062 -227 -935 469 -1326 1582 -890 2530 142 309 393 601 682 795
46 30 86 58 89 60 6 7 -50 65 -63 65 -6 0 -51 -28 -101 -61z"/>
<path d="M526 3724 c-17 -16 -20 -42 -8 -60 11 -18 117 -74 138 -74 43 0 60
53 27 82 -29 25 -109 68 -126 68 -8 0 -23 -7 -31 -16z"/>
<path d="M2313 3488 c-30 -38 -533 -888 -533 -901 0 -7 8 -21 18 -29 9 -9 181
-115 382 -237 238 -145 372 -221 386 -218 11 2 178 100 371 218 l351 214 -31
33 c-17 17 -34 32 -38 32 -4 0 -142 -81 -306 -180 l-298 -181 -3 488 -2 488
-48 48 -47 48 -5 -536 -5 -535 -300 182 c-165 100 -301 182 -303 183 -1 1 93
164 211 361 117 197 227 384 245 415 l32 56 -34 32 c-26 25 -35 29 -43 19z"/>
<path d="M263 2980 c-17 -7 -23 -18 -23 -39 0 -40 29 -58 107 -67 70 -7 93 3
93 41 0 32 -28 52 -84 60 -27 3 -54 8 -60 10 -6 2 -21 0 -33 -5z"/>
<path d="M1872 2268 c-7 -7 -12 -22 -12 -34 0 -22 650 -953 677 -967 8 -5 24
-6 36 -3 25 6 677 925 685 964 5 27 -14 52 -41 52 -11 0 -161 -85 -334 -190
-173 -104 -318 -190 -323 -190 -5 0 -149 86 -321 190 -172 105 -322 190 -334
190 -12 0 -26 -5 -33 -12z m1144 -223 c-7 -18 -363 -523 -388 -550 -18 -19
-18 -15 -18 147 l0 166 203 125 c111 69 204 125 206 126 2 1 1 -6 -3 -14z
m-705 -116 l199 -121 0 -166 c0 -143 -2 -164 -14 -152 -8 8 -86 116 -173 240
-211 299 -225 320 -217 320 4 0 96 -54 205 -121z"/>
<path d="M311 2189 c-55 -11 -71 -24 -71 -60 0 -42 27 -52 102 -39 82 15 98
25 98 58 0 51 -29 61 -129 41z"/>
<path d="M582 1449 c-29 -17 -57 -40 -63 -50 -15 -28 -2 -58 29 -66 33 -8 130
43 152 80 13 23 13 28 -4 46 -26 28 -52 26 -114 -10z"/>
<path d="M3932 923 c-7 -2 -17 -13 -22 -24 -13 -23 -2 -45 49 -106 36 -44 74
-56 99 -31 24 24 12 56 -41 112 -52 55 -59 59 -85 49z"/>
<path d="M1127 889 c-28 -16 -97 -109 -97 -130 0 -26 45 -54 69 -43 30 14 101
106 101 131 0 12 -10 29 -22 37 -26 19 -27 19 -51 5z"/>
<path d="M3258 525 c-9 -21 -7 -37 16 -95 29 -72 49 -90 84 -71 32 17 34 42
11 106 -28 77 -35 85 -70 85 -22 0 -32 -7 -41 -25z"/>
<path d="M1783 504 c-18 -8 -56 -131 -49 -159 8 -30 41 -41 68 -23 12 8 32 43
44 79 19 54 21 67 10 84 -13 20 -49 29 -73 19z"/>
<path d="M2522 408 c-7 -7 -12 -42 -12 -88 0 -83 9 -100 50 -100 41 0 50 17
50 100 0 83 -9 100 -50 100 -14 0 -31 -5 -38 -12z"/>
</g>
</svg>
